<?xml version="1.0" encoding="iso-8859-1"?>
<!-- Generator: Adobe Illustrator 19.0.0, SVG Export Plug-In . SVG Version: 6.00 Build 0)  -->
<svg version="1.1" id="Capa_1" xmlns="http://www.w3.org/2000/svg" xmlns:xlink="http://www.w3.org/1999/xlink" x="0px" y="0px"
	 viewBox="0 0 512.001 512.001" style="enable-background:new 0 0 512.001 512.001;" xml:space="preserve">
<g>
	<g>
		<path d="M462.499,195.896H293.154c4.674-7.047,7.404-15.489,7.404-24.56c0-24.569-19.989-44.558-44.559-44.558H106.287
			c-13.542,0-24.56-11.018-24.56-24.56c0-13.542,11.018-24.56,24.56-24.56h243.801c0.053,12.461,10.204,22.583,22.679,22.583h43.75
			c2.677,0,5.103-1.058,6.897-2.771h31.38c5.522,0,10-4.477,10-10V47.847c0-5.523-4.478-10-10-10h-31.38
			c-1.795-1.713-4.221-2.771-6.897-2.771h-43.75c-12.474,0-22.625,10.121-22.679,22.581H106.287c-24.57,0-44.56,19.99-44.56,44.56
			s19.989,44.56,44.56,44.56H256c13.542,0,24.558,11.018,24.558,24.56S269.541,195.895,256,195.895H49.5
			c-27.295,0-49.5,22.207-49.5,49.502v192.664c0,27.295,22.205,49.502,49.5,49.502h412.999c27.295,0,49.502-22.207,49.502-49.502
			V245.397C512.001,218.102,489.794,195.896,462.499,195.896z M426.517,57.847h18.277v19.622h-18.277V57.847z M372.767,55.076
			h33.748V80.24h-33.748c-1.453,0-2.681-1.227-2.681-2.679V57.755h0C370.086,56.303,371.313,55.076,372.767,55.076z
			 M492.001,438.061c0,16.268-13.234,29.502-29.502,29.502H49.5c-16.267,0-29.5-13.234-29.5-29.502V245.397
			c0-16.268,13.233-29.502,29.5-29.502h412.999c16.268,0,29.502,13.234,29.502,29.502V438.061z"/>
	</g>
</g>
<g>
	<g>
		<path d="M320.299,311.313h-40c-5.523,0-10,4.477-10,10v40c0,5.523,4.477,10,10,10h40c5.522,0,10-4.477,10-10v-40
			C330.299,315.79,325.821,311.313,320.299,311.313z M310.299,351.313h-20v-20h20V351.313z"/>
	</g>
</g>
<g>
	<g>
		<path d="M320.299,241.313h-40c-5.523,0-10,4.477-10,10v40c0,5.523,4.477,10,10,10h40c5.522,0,10-4.477,10-10v-40
			C330.299,245.789,325.821,241.313,320.299,241.313z M310.299,281.313h-20v-20h20V281.313z"/>
	</g>
</g>
<g>
	<g>
		<path d="M390.302,381.314H350.3c-5.523,0-10,4.477-10,10v40c0,5.523,4.477,10,10,10h40.002c5.523,0,10-4.477,10-10v-40
			C400.302,385.791,395.825,381.314,390.302,381.314z M380.302,421.314H360.3v-20h20.002V421.314z"/>
	</g>
</g>
<g>
	<g>
		<path d="M390.3,241.313h-40c-5.523,0-10,4.477-10,10v40c0,5.523,4.476,10,10,10h40c5.523,0,10-4.477,10-10v-40
			C400.3,245.789,395.823,241.313,390.3,241.313z M380.3,281.313h-20v-20h20V281.313z"/>
	</g>
</g>
<g>
	<g>
		<path d="M460.304,381.314h-40.003c-5.523,0-10,4.477-10,10v40c0,5.523,4.477,10,10,10h40.003c5.522,0,10-4.477,10-10v-40
			C470.304,385.791,465.826,381.314,460.304,381.314z M450.304,421.314h-20.003v-20h20.003V421.314z"/>
	</g>
</g>
<g>
	<g>
		<path d="M460.302,311.313H350.3c-5.523,0-10,4.477-10,10v40c0,5.523,4.476,10,10,10h110.002c5.522,0,10-4.477,10-10v-40
			C470.302,315.79,465.824,311.313,460.302,311.313z M450.302,351.313H360.3v-20h90.002V351.313z"/>
	</g>
</g>
<g>
	<g>
		<path d="M460.304,241.313h-40.003c-5.523,0-10,4.477-10,10v40c0,5.523,4.477,10,10,10h40.003c5.522,0,10-4.477,10-10v-40
			C470.304,245.789,465.826,241.313,460.304,241.313z M450.304,281.313h-20.003v-20h20.003V281.313z"/>
	</g>
</g>
<g>
	<g>
		<path d="M320.299,381.314H140.296c-5.523,0-10,4.477-10,10v40c0,5.523,4.477,10,10,10h180.003c5.522,0,10-4.477,10-10v-40
			C330.299,385.791,325.821,381.314,320.299,381.314z M310.299,421.314H150.296v-20h160.003V421.314z"/>
	</g>
</g>
<g>
	<g>
		<path d="M250.298,311.313h-40.001c-5.522,0-10,4.477-10,10v40c0,5.523,4.477,10,10,10h40.001c5.523,0,10-4.477,10-10v-40
			C260.298,315.79,255.82,311.313,250.298,311.313z M240.298,351.313h-20.001v-20h20.001V351.313z"/>
	</g>
</g>
<g>
	<g>
		<path d="M250.298,241.313h-40.001c-5.522,0-10,4.477-10,10v40c0,5.523,4.477,10,10,10h40.001c5.523,0,10-4.477,10-10v-40
			C260.298,245.789,255.82,241.313,250.298,241.313z M240.298,281.313h-20.001v-20h20.001V281.313z"/>
	</g>
</g>
<g>
	<g>
		<path d="M180.297,311.313h-40.001c-5.523,0-10,4.477-10,10v40c0,5.523,4.476,10,10,10h40.001c5.522,0,10-4.477,10-10v-40
			C190.297,315.79,185.819,311.313,180.297,311.313z M170.297,351.313h-20.001v-20h20.001V351.313z"/>
	</g>
</g>
<g>
	<g>
		<path d="M180.297,241.313h-40.001c-5.523,0-10,4.477-10,10v40c0,5.523,4.476,10,10,10h40.001c5.522,0,10-4.477,10-10v-40
			C190.297,245.789,185.819,241.313,180.297,241.313z M170.297,281.313h-20.001v-20h20.001V281.313z"/>
	</g>
</g>
<g>
	<g>
		<path d="M110.295,381.314H56.204c-5.524,0-10,4.477-10,10v40c0,5.523,4.476,10,10,10h54.091c5.523,0,10-4.477,10-10v-40
			C120.295,385.791,115.818,381.314,110.295,381.314z M100.295,421.314H66.204v-20h34.091V421.314z"/>
	</g>
</g>
<g>
	<g>
		<path d="M96.204,311.313h-40c-5.524,0-10,4.477-10,10v40c0,5.523,4.477,10,10,10h40c5.522,0,10-4.477,10-10v-40
			C106.204,315.79,101.726,311.313,96.204,311.313z M86.204,351.313h-20v-20h20V351.313z"/>
	</g>
</g>
<g>
	<g>
		<path d="M96.204,241.313h-40c-5.524,0-10,4.477-10,10v40c0,5.523,4.477,10,10,10h40c5.522,0,10-4.477,10-10v-40
			C106.204,245.789,101.726,241.313,96.204,241.313z M86.204,281.313h-20v-20h20V281.313z"/>
	</g>
</g>
<g>
	<g>
		<path d="M81.7,36.243c-2.499-4.924-8.518-6.89-13.442-4.392c-22.003,11.166-36.183,32.127-38.904,57.51
			c-0.589,5.492,3.385,10.42,8.876,11.009c0.362,0.039,0.722,0.058,1.078,0.058c5.045,0,9.381-3.806,9.931-8.935
			c2.72-25.362,18.754-37.08,28.069-41.807C82.233,47.188,84.2,41.169,81.7,36.243z"/>
	</g>
</g>
<g>
	<g>
		<path d="M97.5,24.438l-0.366,0.002c-5.523,0-10,4.477-10,10c0,5.523,4.476,10,10,10l0.366-0.002c5.522,0,10-4.477,10-10
			S103.022,24.438,97.5,24.438z"/>
	</g>
</g>
<g>
	<g>
		<path d="M396.001,160.034h-46.873c-5.523,0-10,4.477-10,10c0,5.523,4.477,10,10,10h46.873c5.523,0,10-4.477,10-10
			C406.001,164.51,401.524,160.034,396.001,160.034z"/>
	</g>
</g>
<g>
	<g>
		<path d="M419.963,160.034h-0.457c-5.523,0-10,4.477-10,10c0,5.523,4.477,10,10,10h0.457c5.523,0,10-4.477,10-10
			C429.963,164.51,425.486,160.034,419.963,160.034z"/>
	</g>
</g>
<g>
</g>
<g>
</g>
<g>
</g>
<g>
</g>
<g>
</g>
<g>
</g>
<g>
</g>
<g>
</g>
<g>
</g>
<g>
</g>
<g>
</g>
<g>
</g>
<g>
</g>
<g>
</g>
<g>
</g>
</svg>
