<svg width="374" height="104" viewBox="0 0 374 104" fill="none" xmlns="http://www.w3.org/2000/svg">
<path d="M0.244385 9.42257C0.244385 7.6213 0.855323 6.10937 2.07722 4.88698C3.36342 3.60036 4.90686 2.95704 6.70755 2.95704H62.8504C64.651 2.95704 66.1945 3.56814 67.4806 4.79053C68.7025 6.07715 69.3136 7.6213 69.3136 9.42257C69.3136 11.224 68.6705 12.768 67.3842 14.0548C66.1623 15.2772 64.651 15.8883 62.8504 15.8883H41.3386V54.972C40.9527 58.832 38.8305 60.923 34.972 61.2446C33.1712 61.2446 31.5957 60.6657 30.2451 59.5075C28.9588 58.2852 28.3157 56.7734 28.3157 54.972V15.8883H6.70755C4.90686 15.8883 3.39558 15.245 2.17369 13.9584C0.887485 12.736 0.244385 11.224 0.244385 9.42257ZM101.147 44.9357C101.147 43.1342 101.758 41.6225 102.98 40.4001C104.266 39.1133 105.81 38.47 107.61 38.47H122.369L119.861 31.3287C118.832 28.6911 117.803 26.2141 116.774 23.8982C115.81 21.5176 114.684 19.3624 113.398 17.4324C112.241 15.5023 110.922 14.473 109.443 14.3443C107.9 14.473 106.517 15.5023 105.295 17.4324C104.073 19.3624 102.948 21.5176 101.919 23.8982C100.954 26.2141 99.9573 28.6911 98.9284 31.3287L89.7641 56.4195C89.1211 57.7705 88.285 58.8965 87.2561 59.7971C86.2914 60.6335 84.8123 61.0517 82.8187 61.0517C80.9537 61.0517 79.4103 60.4084 78.1884 59.1216C77.0307 57.8349 76.5163 56.2908 76.6449 54.4895C76.7093 53.6531 76.9021 52.8811 77.2237 52.1734L87.8349 24.7666C90.7932 17.5611 93.7515 11.7387 96.7098 7.29954C99.6036 2.92483 103.848 0.705162 109.443 0.64093C114.974 0.705162 119.186 2.92483 122.08 7.29954C125.038 11.61 127.997 17.4324 130.955 24.7666L141.566 52.1734C141.888 52.8811 142.081 53.6531 142.145 54.4895C142.273 56.2908 141.727 57.8349 140.505 59.1216C139.347 60.4084 137.836 61.0517 135.971 61.0517C133.849 61.0517 132.273 60.6335 131.244 59.7971C130.28 58.8965 129.476 57.7705 128.833 56.4195L127 51.4014H107.61C105.81 51.4014 104.298 50.7579 103.076 49.4713C101.79 48.2489 101.147 46.737 101.147 44.9357ZM158.448 1.4129C160.184 1.47733 161.663 2.12064 162.885 3.34303C164.107 4.50099 164.75 5.94849 164.814 7.68553V54.972C164.428 58.832 162.306 60.923 158.448 61.2446C156.647 61.2446 155.071 60.6657 153.721 59.5075C152.434 58.2852 151.791 56.7734 151.791 54.972V7.68553C151.856 5.88426 152.531 4.40454 153.817 3.24639C155.103 2.024 156.647 1.4129 158.448 1.4129ZM174.943 18.3973C179.252 15.5023 185.072 12.5751 192.403 9.61566L208.224 2.8604C208.931 2.53884 209.704 2.34575 210.539 2.28152C212.339 2.15266 213.882 2.69952 215.17 3.92191C216.456 5.08007 217.098 6.5918 217.098 8.4577C217.098 10.5807 216.648 12.1569 215.747 13.1862C214.911 14.1513 213.819 14.9554 212.467 15.5987L198.962 20.7134C196.327 21.7429 193.818 22.7722 191.439 23.8015C189.123 24.7666 187.001 25.8925 185.072 27.1791C183.143 28.3371 182.114 29.6561 181.985 31.1358C182.114 32.5511 183.143 33.87 185.072 35.0924C187.001 36.3792 189.123 37.5371 191.439 38.5664C193.818 39.5315 196.327 40.5288 198.962 41.5581L214.012 47.0587C215.362 47.7021 216.456 48.5384 217.292 49.5677C218.191 50.5328 218.641 52.077 218.641 54.2C218.641 56.0657 217.999 57.6096 216.713 58.832C215.427 59.9902 213.882 60.5048 212.082 60.3762C211.247 60.3117 210.474 60.1188 209.767 59.7971L192.403 52.6558C185.072 49.6964 179.22 46.7692 174.847 43.8742C170.538 40.9148 168.351 36.6685 168.287 31.1358C168.351 25.603 170.57 21.3567 174.943 18.3973ZM246.327 2.95704H250.765H283.564C285.364 3.02128 286.843 3.6968 288.001 4.98342C289.222 6.27024 289.832 7.81419 289.832 9.61566C289.512 13.4757 287.422 15.5667 283.564 15.8883H249.607C247.163 16.017 245.138 16.9498 243.53 18.6868C241.922 20.4239 240.733 22.4184 239.96 24.6701C239.253 26.8574 238.899 29.1093 238.899 31.4252C238.899 33.7413 239.253 36.0252 239.96 38.2769C240.733 40.4643 241.922 42.4267 243.53 44.1637C245.138 45.9008 247.163 46.8336 249.607 46.9623H283.564C285.364 47.0265 286.843 47.7021 288.001 48.9889C289.222 50.2755 289.832 51.8196 289.832 53.6209C289.769 55.3579 289.125 56.8377 287.904 58.06C286.746 59.218 285.3 59.8293 283.564 59.8935H248.161H246.327C241.825 59.6362 238.095 57.9314 235.138 54.7791C232.243 51.5621 230.153 47.9273 228.867 43.8742C227.646 39.821 227.034 35.6714 227.034 31.4252C227.034 27.1791 227.678 23.0295 228.964 18.9764C230.25 14.9232 232.34 11.3205 235.234 8.16816C238.129 4.95141 241.825 3.21437 246.327 2.95704ZM289.641 31.0392C289.641 32.8407 288.997 34.3526 287.711 35.575C286.49 36.8616 284.978 37.5049 283.177 37.5049H254.044C252.244 37.5049 250.701 36.8938 249.413 35.6714C248.192 34.3846 247.582 32.8407 247.582 31.0392C247.582 29.2379 248.192 27.6938 249.413 26.4072C250.701 25.1848 252.244 24.5735 254.044 24.5735H283.177C284.978 24.5735 286.49 25.217 287.711 26.5036C288.997 27.726 289.641 29.2379 289.641 31.0392Z" fill="white"/>
<path d="M325.156 43.0408C325.156 45.3206 325.961 47.1966 327.571 48.6691C329.18 50.094 331.286 50.8065 333.89 50.8065C336.209 50.8065 338.624 50.0229 341.133 48.4553C341.276 48.3605 341.346 48.2416 341.346 48.0991C341.394 47.9091 341.346 47.7428 341.205 47.6005C336.99 44.0381 333.274 40.1908 330.055 36.0586C329.723 35.6785 329.393 35.631 329.061 35.9161C326.458 38.2908 325.156 40.6658 325.156 43.0408ZM330.552 16.6794C330.552 18.6268 331.097 20.8354 332.186 23.3053C332.375 23.7328 332.683 23.8279 333.109 23.5903C335.334 22.1654 337.038 20.788 338.221 19.458C339.407 18.0806 339.998 16.5368 339.998 14.827C339.998 13.4021 339.642 12.2621 338.932 11.407C338.27 10.5522 337.276 10.1247 335.95 10.1247C334.341 10.1247 333.039 10.7421 332.043 11.9771C331.049 13.1645 330.552 14.7319 330.552 16.6794ZM360.733 48.9541C361.918 49.4291 362.793 50.2129 363.36 51.3053C363.787 51.9701 364 52.6589 364 53.3714C364 53.7989 363.93 54.2265 363.787 54.6537C363.409 55.8889 362.65 56.815 361.515 57.4324C360.851 57.8125 360.19 58.0024 359.525 58.0024C359.053 58.0024 358.58 57.9073 358.105 57.7174C355.218 56.7201 352.426 55.3901 349.725 53.7277C349.301 53.4901 348.899 53.5139 348.518 53.7989C343.833 57.2663 338.529 59 332.612 59C327.12 59 322.812 57.5513 319.688 54.6537C316.563 51.709 315 48.0516 315 43.6818C315 40.3569 315.829 37.5308 317.487 35.2035C319.191 32.8762 321.535 30.7388 324.516 28.7914C324.895 28.5063 324.967 28.1501 324.73 27.7225C322.694 23.7328 321.676 20.0517 321.676 16.6794C321.676 12.8321 322.953 9.60232 325.51 6.98975C328.114 4.32999 331.546 3 335.807 3C339.596 3 342.626 4.06881 344.897 6.20619C347.171 8.34358 348.305 11.1935 348.305 14.7557C348.305 16.3707 347.997 17.9143 347.384 19.3868C346.814 20.8593 345.939 22.2367 344.756 23.519C343.619 24.8016 342.507 25.9176 341.419 26.8677C340.328 27.7702 338.956 28.7914 337.298 29.9312C336.92 30.2162 336.874 30.5486 337.157 30.9287C340.139 34.5386 343.69 37.9345 347.808 41.1169C348.189 41.4496 348.518 41.4257 348.804 41.0456C350.649 38.4333 352.188 35.5834 353.419 32.4961C353.987 31.1187 354.84 30.0024 355.974 29.1476C357.111 28.2926 358.391 27.8651 359.811 27.8651C361.04 27.8651 361.988 28.3638 362.65 29.3614C363.125 29.9312 363.36 30.5486 363.36 31.2138C363.36 31.6413 363.266 32.0686 363.076 32.4961C361.229 37.3409 358.864 41.782 355.974 45.8192C355.691 46.1993 355.763 46.5079 356.188 46.7455C357.797 47.648 359.312 48.3841 360.733 48.9541Z" fill="white"/>
<path d="M245.136 47.5799H285.032C286.796 47.6429 288.246 48.3048 289.38 49.566C290.577 50.8269 291.176 52.34 291.176 54.1053C290.862 57.8883 288.813 59.9374 285.032 60.2526H248.351C245.956 60.3787 243.971 61.293 242.396 62.9953C240.82 64.6975 239.654 66.6519 238.897 68.8588C238.204 71.0023 237.858 73.209 237.858 75.4788C237.858 77.7485 238.204 79.9868 238.897 82.1934C239.654 84.3372 240.82 86.2602 242.396 87.9624C243.971 89.6647 245.956 90.579 248.351 90.7051H277.09C278.224 90.642 278.824 90.0116 278.886 88.8137V83.3284C278.824 82.0673 278.224 81.4368 277.09 81.4368H252.889C251.124 81.4368 249.611 80.838 248.351 79.6401C247.153 78.379 246.555 76.8659 246.555 75.1006C246.555 73.3353 247.153 71.8219 248.351 70.561C249.611 69.3631 251.124 68.7641 252.889 68.7641H285.221C286.986 68.7641 288.497 69.3631 289.757 70.561C290.893 71.7589 291.492 73.209 291.555 74.9114V75.1006V97.2305C291.492 98.9323 290.893 100.351 289.757 101.486C288.56 102.683 287.112 103.314 285.409 103.377H245.136C240.725 103.126 237.07 101.454 234.172 98.3651C231.335 95.213 229.286 91.6508 228.026 87.6786C226.828 83.7067 226.23 79.6401 226.23 75.4788C226.23 71.3176 226.86 67.251 228.12 63.2789C229.381 59.3069 231.43 55.7761 234.267 52.6869C237.102 49.5343 240.725 47.8321 245.136 47.5799ZM354.042 47.5799C357.256 47.6429 360.125 48.6517 362.646 50.6061C365.166 52.5608 367.184 54.8935 368.695 57.6045C370.271 60.3157 371.437 63.1844 372.194 66.2106C372.95 69.2371 373.328 72.3263 373.328 75.4788C373.328 79.6401 372.666 83.7381 371.342 87.7733C370.082 91.7454 367.972 95.276 365.008 98.3651C362.11 101.454 358.455 103.126 354.042 103.377H321.049C316.638 103.189 312.951 101.549 309.99 98.46C307.026 95.3707 304.916 91.8085 303.656 87.7733C302.457 83.7381 301.858 79.6401 301.858 75.4788C301.858 71.3176 302.488 67.251 303.749 63.2789C305.009 59.2439 307.089 55.6817 309.99 52.5922C312.951 49.4399 316.638 47.769 321.049 47.5799H322.845H352.246H354.042ZM350.827 90.7051C353.224 90.579 355.209 89.6963 356.784 88.0569C358.424 86.3547 359.589 84.4002 360.283 82.1934C360.976 79.9868 361.322 77.7485 361.322 75.4788C361.322 73.209 360.945 71.0023 360.188 68.8588C359.494 66.6519 358.36 64.6975 356.784 62.9953C355.209 61.293 353.224 60.3787 350.827 60.2526H323.981C321.584 60.3787 319.601 61.293 318.024 62.9953C316.448 64.6975 315.282 66.6519 314.526 68.8588C313.834 71.0023 313.486 73.209 313.486 75.4788C313.486 77.7485 313.834 79.9868 314.526 82.1934C315.219 84.4002 316.355 86.3547 317.93 88.0569C319.569 89.6963 321.584 90.579 323.981 90.7051H350.827Z" fill="white"/>
</svg>
